<svg width="375" height="554" viewBox="0 0 375 554" fill="none" xmlns="http://www.w3.org/2000/svg">
<path d="M147.547 553.987V537.011C151.865 537.011 156.182 536.943 160.481 537.011C185.673 537.474 210.501 535.194 234.254 526.809C269.101 514.48 293.164 492.292 299.63 457.003C302.891 439.187 303.073 420.72 302.964 402.561C302.745 370.565 296.625 339.409 284.366 309.436C284.056 308.681 283.728 307.875 283.728 307.086C283.692 293.54 283.692 279.977 283.692 266.122C284.639 266.191 285.349 266.122 285.95 266.328C341.162 285.241 378.85 320.221 396.246 373.531C397.777 378.247 397.613 383.528 397.813 388.552C398.542 406.436 397.267 424.098 391.765 441.382C379.361 480.357 352.747 508.135 315.168 526.911C279.502 544.727 241.304 553.815 200.828 553.97C184.817 554.038 168.805 553.97 152.775 553.97H147.529L147.547 553.987Z" fill="white"/>
<path d="M283.691 241.122V235.275C283.691 195.665 283.819 156.055 283.637 116.428C283.527 91.651 275.002 69.617 257.351 51.0982C237.278 30.0416 211.958 18.9818 181.92 18.3645C159.223 17.9015 136.49 18.2787 113.775 18.2959C113.211 18.2959 112.628 18.4159 111.662 18.5359V257.686C113.138 257.754 114.668 257.874 116.18 257.892C144.141 257.892 172.102 257.84 200.063 257.977C203.233 257.977 205.054 257 206.785 254.599C228.534 224.42 244.054 191.858 249.992 155.575C250.029 155.335 250.247 155.095 250.502 154.632H264.128V387.317H250.174C246.877 366.106 240.557 345.89 230.502 326.943C223.306 313.396 214.781 300.45 206.603 287.384C205.655 285.858 203.05 284.367 201.211 284.349C172.375 284.161 143.54 284.212 114.722 284.229C113.739 284.229 112.755 284.384 111.334 284.504V554H0V0H375.626V4.81831C375.626 54.9906 375.626 105.146 375.626 155.318C375.626 197.62 341.308 234.469 296.734 240.024C292.599 240.539 288.427 240.727 283.746 241.122H283.691Z" fill="white"/>
</svg>
